<?xml version="1.0" standalone="no"?>
<!DOCTYPE svg PUBLIC "-//W3C//DTD SVG 20010904//EN" "http://www.w3.org/TR/2001/REC-SVG-20010904/DTD/svg10.dtd">
<!-- Created using Krita: https://krita.org -->
<svg xmlns="http://www.w3.org/2000/svg"
    xmlns:xlink="http://www.w3.org/1999/xlink"
    xmlns:krita="http://krita.org/namespaces/svg/krita"
    xmlns:sodipodi="http://sodipodi.sourceforge.net/DTD/sodipodi-0.dtd"
    width="84.96pt"
    height="43.68pt"
    viewBox="0 0 84.96 43.68">
<defs/>
<path id="shape0" transform="translate(0.24, 0.239999999999994)" fill="#092337" fill-rule="evenodd" stroke-opacity="0" stroke="#000000" stroke-width="0" stroke-linecap="square" stroke-linejoin="bevel" d="M77.28 4.44089e-15L84.48 7.2L84.48 36L77.28 43.2L7.2 43.2L0 36L2.22045e-16 7.2L7.2 4.44089e-15M10.32 5.04L9.36 6L9.36 7.2L21.36 19.2L22.8 19.2L23.52 18.24L23.52 6.24L22.56 5.04L10.32 5.04M26.64 5.04L26.4 5.28L26.4 38.4L26.64 38.64L33.36 38.64L33.6 38.4L33.6 17.52L49.68 38.64L56.88 38.64L56.88 5.28L56.64 5.04L49.92 5.04L49.68 5.28L49.68 26.16L33.6 5.04L26.64 5.04M59.76 25.2L59.76 37.44L60.96 38.64L72.96 38.64L74.16 37.44L74.16 36.48L61.92 24.24L60.72 24.24L59.76 25.2" sodipodi:nodetypes="cccccccccccccccccccccccccccccccccccccccccc"/>
</svg>
