<?xml version="1.0" encoding="UTF-8"?>
<svg xmlns="http://www.w3.org/2000/svg" viewBox="0 0 1171.45 773.09">
  <defs>
    <style>
      .cls-1 {
        fill: #fff;
      }

      .cls-2 {
        fill: #361415;
      }

      .cls-3 {
        fill: #351616;
      }

      .cls-4 {
        fill: #5d0c0f;
      }
    </style>
  </defs>
  <g id="Dark">
    <polygon class="cls-2" points="0 0 48.77 0 182.3 133.62 316.81 0 356.89 0 356.89 381.29 260 381.29 260 194.55 182.7 271.85 97.53 186.68 97.53 381.29 0 381.29 0 0"/>
    <polygon class="cls-2" points="713.36 89.02 713.36 0 365.62 0 365.62 381.29 713.36 381.29 713.36 300.94 462.13 300.94 462.13 218.72 681.7 218.72 681.7 138.04 462.64 138.04 462.64 88.51 713.36 89.02"/>
    <polygon class="cls-2" points="186.64 388.77 543.06 388.77 543.06 478.64 413.36 478.64 413.36 770.69 316.34 770.69 316.34 478.64 186.64 478.64 186.64 388.77"/>
    <path class="cls-3" d="M689.83,746.98l49.04-49.04-61.51-114.62-101.11,187.37h-121.02v-23.45l202.21-358.47h153.7l74.04,74.04v-74.04h97.02v73.53l73.15-73.15h112.98v32.3l-162.64,162.64,162.89,162.89v23.71h-122.3l-64.83-64.83v64.83h-291.63M689.83,770.69,722.55,446.47l100.85,178.72,36.77-40.34-137.62-138.38ZM874.05,715.74l11.05,20.19v-31.24l-11.05,11.05Z"/>
    <path class="cls-2" d="M722.3.1h161.62l.02.09c100.13,1.06,182.59,72.15,196.2,164.36,1.33,8.8,2,17.8,2,26.95s-.73,18.9-2.15,28.05c-13.04,84.76-84.35,151.47-173.87,161.84h-183.81V.1ZM820.03,301.19h61.9c49.59-6.39,89.39-40.07,99.6-83.37,1.65-7.07,2.54-14.39,2.54-21.88s-.8-14.23-2.34-21.02c-5.84-25.89-22.28-48.4-45.07-63.79-18.71-12.64-41.73-20.48-66.72-21.45h-50.24l.33,211.51Z"/>
  </g>
  <g id="Red">
    <g>
      <path class="cls-4" d="M326.97,17.34v347.7h-50.3v-226.25l-68.44,68.46-16.45,16.43-19.15,19.11-106.42-106.42v.02L15.91,86.08V14.92l156.74,156.74L326.97,17.34ZM15.91,121.63l50.3,50.3v193.11H15.91V121.63Z"/>
      <path class="cls-4" d="M691.33,16.3v50.3h-308.4V16.3h308.4ZM433.24,314.73h258.1v50.3h-308.4V91.75h50.3v61.13h224.31v50.3h-224.31v111.55Z"/>
      <path class="cls-4" d="M1056.04,191.34c0,8.72-.64,17.29-1.88,25.65-11.38,77.53-73.62,138.55-151.76,148.04h-160.43V91.92h50.3v222.82h106.76c51.81-7.49,93.39-46.98,104.06-97.74,1.73-8.28,2.65-16.87,2.65-25.65s-.84-16.68-2.45-24.65c-6.1-30.35-23.27-56.74-47.08-74.78-19.55-14.82-43.59-24.01-69.7-25.15h-144.53V16.28h141.06l.02.08c87.39.97,159.37,66,171.24,150.33,1.16,8.05,1.74,16.28,1.74,24.65Z"/>
    </g>
    <g>
      <path class="cls-4" d="M203.21,457.36v-50.3h311.11v50.3H203.21ZM330.93,755.75v-273.24h50.3v273.24h-50.3Z"/>
      <path class="cls-4" d="M621.91,495.57l33.05,60.3-110.61,199.88h-66.45l144.01-260.18ZM865.33,755.75h-66.46l-127.26-229.96-33.21-60.01,33.2-59.99.02-.04,33.24,60.03,160.49,289.97Z"/>
    </g>
    <g>
      <polygon class="cls-4" points="949.49 405.79 949.49 510.98 900.72 559.7 900.72 405.79 949.49 405.79"/>
      <polygon class="cls-4" points="712.8 755.75 1062.89 405.66 1160.57 405.66 810.48 755.76 712.8 755.75"/>
      <polygon class="cls-4" points="900.68 755.75 900.68 673.11 977.82 595.97 1137.61 755.76 1055.91 755.76 949.19 649.04 949.19 755.76 900.68 755.75"/>
    </g>
    <polygon class="cls-4" points="928.42 532.01 880.61 579.82 706.59 405.8 802.3 405.8 928.42 532.01"/>
  </g>
  <g id="White">
    <g>
      <path class="cls-1" d="M341.25,17.23v347.7h-50.3v-226.25l-68.44,68.46-16.45,16.43-19.15,19.11-106.42-106.42v.02l-50.3-50.3V14.82l156.74,156.74L341.25,17.23ZM30.19,121.53l50.3,50.3v193.11H30.19V121.53Z"/>
      <path class="cls-1" d="M705.61,16.2v50.3h-308.4V16.2h308.4ZM447.51,314.63h258.1v50.3h-308.4V91.65h50.3v61.13h224.31v50.3h-224.31v111.55Z"/>
      <path class="cls-1" d="M1070.31,191.24c0,8.72-.64,17.29-1.88,25.65-11.38,77.53-73.62,138.55-151.76,148.04h-160.43V91.82h50.3v222.82h106.76c51.81-7.49,93.39-46.98,104.06-97.74,1.73-8.28,2.65-16.87,2.65-25.65s-.84-16.68-2.45-24.65c-6.1-30.35-23.27-56.74-47.08-74.78-19.55-14.82-43.59-24.01-69.7-25.15h-144.53V16.18h141.06l.02.08c87.39.97,159.37,66,171.24,150.33,1.16,8.05,1.74,16.28,1.74,24.65Z"/>
    </g>
    <g>
      <path class="cls-1" d="M219.6,457.36v-50.3h311.11v50.3H219.6ZM347.31,755.75v-273.24h50.3v273.24h-50.3Z"/>
      <path class="cls-1" d="M638.29,495.57l33.05,60.3-110.61,199.88h-66.45l144.01-260.18ZM881.72,755.75h-66.46l-127.26-229.96-33.21-60.01,33.2-59.99.02-.04,33.24,60.03,160.49,289.97Z"/>
    </g>
    <g>
      <polygon class="cls-1" points="965.6 405.79 965.6 494.83 916.83 543.6 916.83 405.79 965.6 405.79"/>
      <polygon class="cls-1" points="916.83 567.83 1079 405.66 1160.57 405.66 916.66 649.57 916.83 567.83"/>
      <polygon class="cls-1" points="916.79 755.75 916.79 673.11 993.93 595.97 1153.71 755.76 1072.02 755.76 965.3 649.04 965.3 755.76 916.79 755.75"/>
    </g>
  </g>
</svg>
